<svg width="256" height="256" viewBox="0 0 256 256" fill="none" xmlns="http://www.w3.org/2000/svg">
<rect width="256" height="256" rx="49.8055" fill="url(#paint0_linear_63_9)"/>
<path d="M47.9997 203.377V53.333L50.8441 45.1552L63.2886 39.4663H159.644L207.289 87.1108V199.822L203.377 212.266L185.6 219.022H63.2886L50.8441 214.044L47.9997 203.377Z" fill="url(#paint1_linear_63_9)"/>
<path d="M159.288 70.0446V41.6001L161.422 40.1779L207.288 88.5334H180.266L166.044 83.9112L159.288 70.0446Z" fill="url(#paint2_linear_63_9)"/>
<path d="M182.4 219.733H67.1995" stroke="#0E0E10" stroke-width="0.711111"/>
<path d="M207.644 85.3338V198.4C207.644 210.183 198.093 219.734 186.311 219.734H66.8441C55.0621 219.734 45.5108 210.183 45.5108 198.4V61.156C45.5108 49.374 55.0621 39.8227 66.8442 39.8227H161.777" stroke="#0E0E10" stroke-width="7.11111"/>
<path d="M158.577 36.2668V67.9113C158.577 79.6934 168.128 89.2446 179.911 89.2446H211.079" stroke="#0E0E10" stroke-width="7.11111"/>
<path d="M159.644 38.7554L208.711 87.8221" stroke="#0E0E10" stroke-width="7.11111"/>
<ellipse cx="96.3554" cy="124.445" rx="9.6" ry="13.5111" fill="#0E0E10"/>
<ellipse cx="158.222" cy="124.445" rx="9.6" ry="13.5111" fill="#0E0E10"/>
<path d="M98.4886 159.289C110.222 174.934 142.933 173.867 154.311 158.578" stroke="#0E0E10" stroke-width="8.53333" stroke-linecap="round"/>
<path d="M188.61 49.3033C189.026 49.5971 189.502 49.7947 190.004 49.8818C190.506 49.9689 191.021 49.9432 191.512 49.8067C192.003 49.6702 192.457 49.4262 192.842 49.0924C193.227 48.7587 193.532 48.3435 193.737 47.877L195.362 42.9399C195.757 41.7521 196.423 40.6726 197.308 39.7871C198.193 38.9015 199.272 38.2343 200.459 37.8382L205.181 36.3043C205.852 36.0708 206.433 35.6315 206.839 35.0489C207.154 34.6072 207.358 34.0972 207.436 33.5608C207.515 33.0245 207.464 32.4772 207.289 31.9642C207.114 31.4512 206.82 30.9872 206.43 30.6104C206.04 30.2337 205.567 29.955 205.048 29.7974L200.375 28.2782C199.187 27.8841 198.107 27.2186 197.22 26.3346C196.334 25.4505 195.666 24.3721 195.269 23.185L193.735 18.4652C193.499 17.7964 193.061 17.2176 192.482 16.8089C191.899 16.407 191.207 16.1917 190.499 16.1917C189.791 16.1917 189.1 16.407 188.517 16.8089C187.929 17.225 187.486 17.8154 187.251 18.4968L185.698 23.2757C185.302 24.432 184.648 25.4831 183.786 26.3495C182.924 27.2158 181.876 27.8746 180.721 28.2761L175.995 29.8079C175.322 30.0456 174.741 30.4871 174.331 31.0708C173.921 31.6545 173.703 32.3515 173.708 33.0648C173.712 33.7781 173.939 34.4722 174.357 35.0505C174.774 35.6288 175.362 36.0627 176.037 36.2916L180.713 37.8107C182.229 38.3194 183.561 39.2631 184.544 40.5241C185.105 41.2477 185.538 42.0601 185.823 42.9293L187.359 47.6428C187.595 48.3138 188.034 48.894 188.614 49.3033M209.173 62.1314C209.602 62.4349 210.116 62.5971 210.641 62.5956C211.164 62.5972 211.674 62.4373 212.101 62.1378C212.542 61.8268 212.872 61.3832 213.043 60.8718L213.827 58.4602C213.993 57.9595 214.274 57.5044 214.646 57.1308C215.019 56.7573 215.473 56.4756 215.973 56.3081L218.433 55.5106C218.929 55.3344 219.359 55.0091 219.663 54.5792C219.967 54.1494 220.131 53.636 220.132 53.1095C220.132 52.5692 219.959 52.0431 219.639 51.6081C219.318 51.173 218.867 50.8519 218.351 50.6916L215.937 49.911C215.436 49.7447 214.981 49.4641 214.608 49.0912C214.234 48.7184 213.952 48.2637 213.785 47.7631L212.983 45.3093C212.811 44.8085 212.485 44.3745 212.052 44.0686C211.62 43.7626 211.102 43.6 210.572 43.6037C210.043 43.6075 209.527 43.7773 209.099 44.0893C208.671 44.4014 208.351 44.8398 208.186 45.343L207.396 47.761C207.235 48.2551 206.962 48.7056 206.598 49.0776C206.235 49.4496 205.791 49.7333 205.301 49.9067L202.841 50.7043C202.344 50.8799 201.913 51.2053 201.608 51.6356C201.303 52.0659 201.139 52.5801 201.139 53.1074C201.139 53.6393 201.307 54.1575 201.619 54.5885C201.93 55.0195 202.37 55.3414 202.875 55.5085L205.289 56.2934C205.792 56.4592 206.248 56.7409 206.622 57.1159C206.996 57.4908 207.276 57.9484 207.441 58.4518L208.24 60.9056C208.415 61.4013 208.739 61.8305 209.169 62.1335" fill="#0E0E10"/>
<defs>
<linearGradient id="paint0_linear_63_9" x1="128" y1="0" x2="128" y2="256" gradientUnits="userSpaceOnUse">
<stop stop-color="#83E3FE"/>
<stop offset="1" stop-color="#36AAFD"/>
</linearGradient>
<linearGradient id="paint1_linear_63_9" x1="52.2664" y1="49.0663" x2="198.755" y2="216.177" gradientUnits="userSpaceOnUse">
<stop stop-color="#FEFCFC"/>
<stop offset="1" stop-color="#EDF0F2"/>
</linearGradient>
<linearGradient id="paint2_linear_63_9" x1="159.288" y1="44.4446" x2="207.644" y2="89.2446" gradientUnits="userSpaceOnUse">
<stop stop-color="#FFBE09"/>
<stop offset="1" stop-color="#DF7621"/>
</linearGradient>
</defs>
</svg>
